<mxfile host="65bd71144e">
    <diagram name="Page-1" id="G9xICqinuXO-daj7mlqb">
        <mxGraphModel dx="566" dy="526" grid="1" gridSize="10" guides="1" tooltips="1" connect="1" arrows="1" fold="1" page="1" pageScale="1" pageWidth="850" pageHeight="1100" math="0" shadow="0">
            <root>
                <mxCell id="0"/>
                <mxCell id="1" parent="0"/>
                <mxCell id="5w37oeH6b676DkqFVIme-1" value="" style="shape=internalStorage;whiteSpace=wrap;html=1;backgroundOutline=1;" parent="1" vertex="1">
                    <mxGeometry x="40" y="150" width="120" height="140" as="geometry"/>
                </mxCell>
                <mxCell id="5w37oeH6b676DkqFVIme-2" value="Users" style="text;html=1;strokeColor=none;fillColor=none;align=center;verticalAlign=middle;whiteSpace=wrap;rounded=0;" parent="1" vertex="1">
                    <mxGeometry x="60" y="150" width="100" height="20" as="geometry"/>
                </mxCell>
                <mxCell id="5w37oeH6b676DkqFVIme-3" value="" style="shape=internalStorage;whiteSpace=wrap;html=1;backgroundOutline=1;" parent="1" vertex="1">
                    <mxGeometry x="220" y="190" width="120" height="220" as="geometry"/>
                </mxCell>
                <mxCell id="5w37oeH6b676DkqFVIme-4" value="Books" style="text;html=1;strokeColor=none;fillColor=none;align=center;verticalAlign=middle;whiteSpace=wrap;rounded=0;" parent="1" vertex="1">
                    <mxGeometry x="240" y="190" width="100" height="20" as="geometry"/>
                </mxCell>
                <mxCell id="5w37oeH6b676DkqFVIme-5" value="" style="shape=internalStorage;whiteSpace=wrap;html=1;backgroundOutline=1;" parent="1" vertex="1">
                    <mxGeometry x="220" y="60" width="120" height="100" as="geometry"/>
                </mxCell>
                <mxCell id="5w37oeH6b676DkqFVIme-6" value="Transactions" style="text;html=1;strokeColor=none;fillColor=none;align=center;verticalAlign=middle;whiteSpace=wrap;rounded=0;" parent="1" vertex="1">
                    <mxGeometry x="240" y="60" width="100" height="20" as="geometry"/>
                </mxCell>
                <mxCell id="5w37oeH6b676DkqFVIme-7" value="id" style="text;html=1;strokeColor=none;fillColor=none;align=left;verticalAlign=middle;whiteSpace=wrap;rounded=0;fontStyle=1" parent="1" vertex="1">
                    <mxGeometry x="66" y="170" width="94" height="20" as="geometry"/>
                </mxCell>
                <mxCell id="5w37oeH6b676DkqFVIme-10" value="name" style="text;html=1;strokeColor=none;fillColor=none;align=left;verticalAlign=middle;whiteSpace=wrap;rounded=0;" parent="1" vertex="1">
                    <mxGeometry x="66" y="190" width="94" height="20" as="geometry"/>
                </mxCell>
                <mxCell id="5w37oeH6b676DkqFVIme-11" value="email" style="text;html=1;strokeColor=none;fillColor=none;align=left;verticalAlign=middle;whiteSpace=wrap;rounded=0;" parent="1" vertex="1">
                    <mxGeometry x="66" y="210" width="94" height="20" as="geometry"/>
                </mxCell>
                <mxCell id="5w37oeH6b676DkqFVIme-12" value="password" style="text;html=1;strokeColor=none;fillColor=none;align=left;verticalAlign=middle;whiteSpace=wrap;rounded=0;" parent="1" vertex="1">
                    <mxGeometry x="66" y="250" width="94" height="20" as="geometry"/>
                </mxCell>
                <mxCell id="5w37oeH6b676DkqFVIme-13" value="address" style="text;html=1;strokeColor=none;fillColor=none;align=left;verticalAlign=middle;whiteSpace=wrap;rounded=0;" parent="1" vertex="1">
                    <mxGeometry x="66" y="230" width="94" height="20" as="geometry"/>
                </mxCell>
                <mxCell id="5w37oeH6b676DkqFVIme-14" value="id" style="text;html=1;strokeColor=none;fillColor=none;align=left;verticalAlign=middle;whiteSpace=wrap;rounded=0;fontStyle=1" parent="1" vertex="1">
                    <mxGeometry x="246" y="210" width="94" height="20" as="geometry"/>
                </mxCell>
                <mxCell id="5w37oeH6b676DkqFVIme-15" value="title" style="text;html=1;strokeColor=none;fillColor=none;align=left;verticalAlign=middle;whiteSpace=wrap;rounded=0;" parent="1" vertex="1">
                    <mxGeometry x="246" y="230" width="94" height="20" as="geometry"/>
                </mxCell>
                <mxCell id="5w37oeH6b676DkqFVIme-16" value="author" style="text;html=1;strokeColor=none;fillColor=none;align=left;verticalAlign=middle;whiteSpace=wrap;rounded=0;" parent="1" vertex="1">
                    <mxGeometry x="246" y="270" width="94" height="20" as="geometry"/>
                </mxCell>
                <mxCell id="5w37oeH6b676DkqFVIme-17" value="created_at" style="text;html=1;strokeColor=none;fillColor=none;align=left;verticalAlign=middle;whiteSpace=wrap;rounded=0;" parent="1" vertex="1">
                    <mxGeometry x="246" y="330" width="94" height="20" as="geometry"/>
                </mxCell>
                <mxCell id="5w37oeH6b676DkqFVIme-18" value="year" style="text;html=1;strokeColor=none;fillColor=none;align=left;verticalAlign=middle;whiteSpace=wrap;rounded=0;" parent="1" vertex="1">
                    <mxGeometry x="246" y="250" width="94" height="20" as="geometry"/>
                </mxCell>
                <mxCell id="5w37oeH6b676DkqFVIme-19" value="updated_at" style="text;html=1;strokeColor=none;fillColor=none;align=left;verticalAlign=middle;whiteSpace=wrap;rounded=0;" parent="1" vertex="1">
                    <mxGeometry x="246" y="350" width="94" height="20" as="geometry"/>
                </mxCell>
                <mxCell id="5w37oeH6b676DkqFVIme-20" value="deleted_at" style="text;html=1;strokeColor=none;fillColor=none;align=left;verticalAlign=middle;whiteSpace=wrap;rounded=0;" parent="1" vertex="1">
                    <mxGeometry x="246" y="370" width="94" height="20" as="geometry"/>
                </mxCell>
                <mxCell id="5w37oeH6b676DkqFVIme-21" value="id_users" style="text;html=1;strokeColor=none;fillColor=none;align=left;verticalAlign=middle;whiteSpace=wrap;rounded=0;" parent="1" vertex="1">
                    <mxGeometry x="245" y="390" width="94" height="20" as="geometry"/>
                </mxCell>
                <mxCell id="5w37oeH6b676DkqFVIme-22" value="contents" style="text;html=1;strokeColor=none;fillColor=none;align=left;verticalAlign=middle;whiteSpace=wrap;rounded=0;" parent="1" vertex="1">
                    <mxGeometry x="246" y="290" width="94" height="20" as="geometry"/>
                </mxCell>
                <mxCell id="5w37oeH6b676DkqFVIme-23" value="id" style="text;html=1;strokeColor=none;fillColor=none;align=left;verticalAlign=middle;whiteSpace=wrap;rounded=0;fontStyle=1" parent="1" vertex="1">
                    <mxGeometry x="246" y="80" width="94" height="20" as="geometry"/>
                </mxCell>
                <mxCell id="5w37oeH6b676DkqFVIme-28" value="image" style="text;html=1;strokeColor=none;fillColor=none;align=left;verticalAlign=middle;whiteSpace=wrap;rounded=0;" parent="1" vertex="1">
                    <mxGeometry x="66" y="270" width="94" height="20" as="geometry"/>
                </mxCell>
                <mxCell id="5w37oeH6b676DkqFVIme-29" value="image" style="text;html=1;strokeColor=none;fillColor=none;align=left;verticalAlign=middle;whiteSpace=wrap;rounded=0;" parent="1" vertex="1">
                    <mxGeometry x="246" y="310" width="94" height="20" as="geometry"/>
                </mxCell>
                <mxCell id="5w37oeH6b676DkqFVIme-30" value="&lt;div&gt;submit_date&lt;br&gt;&lt;/div&gt;" style="text;html=1;strokeColor=none;fillColor=none;align=left;verticalAlign=middle;whiteSpace=wrap;rounded=0;" parent="1" vertex="1">
                    <mxGeometry x="246" y="117" width="94" height="20" as="geometry"/>
                </mxCell>
                <mxCell id="5w37oeH6b676DkqFVIme-32" value="PK" style="text;html=1;strokeColor=none;fillColor=none;align=left;verticalAlign=middle;whiteSpace=wrap;rounded=0;fontStyle=1" parent="1" vertex="1">
                    <mxGeometry x="40" y="170" width="20" height="20" as="geometry"/>
                </mxCell>
                <mxCell id="5w37oeH6b676DkqFVIme-33" value="PK" style="text;html=1;strokeColor=none;fillColor=none;align=left;verticalAlign=middle;whiteSpace=wrap;rounded=0;fontStyle=1" parent="1" vertex="1">
                    <mxGeometry x="220" y="210" width="20" height="20" as="geometry"/>
                </mxCell>
                <mxCell id="5w37oeH6b676DkqFVIme-34" value="PK" style="text;html=1;strokeColor=none;fillColor=none;align=left;verticalAlign=middle;whiteSpace=wrap;rounded=0;fontStyle=1" parent="1" vertex="1">
                    <mxGeometry x="220" y="80" width="20" height="20" as="geometry"/>
                </mxCell>
                <mxCell id="5w37oeH6b676DkqFVIme-35" value="FK" style="text;html=1;strokeColor=none;fillColor=none;align=left;verticalAlign=middle;whiteSpace=wrap;rounded=0;" parent="1" vertex="1">
                    <mxGeometry x="220" y="390" width="20" height="20" as="geometry"/>
                </mxCell>
                <mxCell id="5w37oeH6b676DkqFVIme-37" value="FK" style="text;html=1;strokeColor=none;fillColor=none;align=left;verticalAlign=middle;whiteSpace=wrap;rounded=0;" parent="1" vertex="1">
                    <mxGeometry x="220" y="117" width="20" height="20" as="geometry"/>
                </mxCell>
                <mxCell id="faXq0JID8bgZHqzAQeFo-18" value="" style="endArrow=none;html=1;rounded=0;exitX=0;exitY=1;exitDx=0;exitDy=0;" parent="1" source="5w37oeH6b676DkqFVIme-32" edge="1">
                    <mxGeometry width="50" height="50" relative="1" as="geometry">
                        <mxPoint x="180" y="200" as="sourcePoint"/>
                        <mxPoint x="160" y="190" as="targetPoint"/>
                    </mxGeometry>
                </mxCell>
                <mxCell id="faXq0JID8bgZHqzAQeFo-21" value="" style="endArrow=none;html=1;rounded=0;exitX=0;exitY=1;exitDx=0;exitDy=0;" parent="1" edge="1">
                    <mxGeometry width="50" height="50" relative="1" as="geometry">
                        <mxPoint x="220" y="230" as="sourcePoint"/>
                        <mxPoint x="340" y="230" as="targetPoint"/>
                    </mxGeometry>
                </mxCell>
                <mxCell id="faXq0JID8bgZHqzAQeFo-22" value="" style="endArrow=none;html=1;rounded=0;exitX=0;exitY=1;exitDx=0;exitDy=0;" parent="1" edge="1">
                    <mxGeometry width="50" height="50" relative="1" as="geometry">
                        <mxPoint x="220" y="99.51999999999998" as="sourcePoint"/>
                        <mxPoint x="340" y="99.51999999999998" as="targetPoint"/>
                    </mxGeometry>
                </mxCell>
                <mxCell id="faXq0JID8bgZHqzAQeFo-23" value="" style="endArrow=none;html=1;rounded=0;exitX=0;exitY=1;exitDx=0;exitDy=0;" parent="1" edge="1">
                    <mxGeometry width="50" height="50" relative="1" as="geometry">
                        <mxPoint x="220" y="389.52" as="sourcePoint"/>
                        <mxPoint x="340" y="389.52" as="targetPoint"/>
                    </mxGeometry>
                </mxCell>
                <mxCell id="faXq0JID8bgZHqzAQeFo-25" value="" style="edgeStyle=entityRelationEdgeStyle;fontSize=12;html=1;endArrow=ERzeroToMany;startArrow=ERmandOne;rounded=0;exitX=1;exitY=0.5;exitDx=0;exitDy=0;entryX=0;entryY=0.5;entryDx=0;entryDy=0;" parent="1" source="5w37oeH6b676DkqFVIme-7" target="5w37oeH6b676DkqFVIme-35" edge="1">
                    <mxGeometry width="100" height="100" relative="1" as="geometry">
                        <mxPoint x="190" y="400" as="sourcePoint"/>
                        <mxPoint x="290" y="300" as="targetPoint"/>
                    </mxGeometry>
                </mxCell>
                <mxCell id="faXq0JID8bgZHqzAQeFo-26" value="" style="edgeStyle=entityRelationEdgeStyle;fontSize=12;html=1;endArrow=ERzeroToMany;startArrow=ERmandOne;rounded=0;entryX=0;entryY=0.5;entryDx=0;entryDy=0;exitX=1;exitY=0.5;exitDx=0;exitDy=0;" parent="1" source="5w37oeH6b676DkqFVIme-7" target="5w37oeH6b676DkqFVIme-37" edge="1">
                    <mxGeometry width="100" height="100" relative="1" as="geometry">
                        <mxPoint x="180" y="240" as="sourcePoint"/>
                        <mxPoint x="200" y="130" as="targetPoint"/>
                    </mxGeometry>
                </mxCell>
                <mxCell id="faXq0JID8bgZHqzAQeFo-27" value="" style="edgeStyle=entityRelationEdgeStyle;fontSize=12;html=1;endArrow=ERoneToMany;startArrow=ERmandOne;rounded=0;entryX=0;entryY=0.5;entryDx=0;entryDy=0;exitX=1;exitY=0.5;exitDx=0;exitDy=0;endFill=0;" parent="1" source="5w37oeH6b676DkqFVIme-14" target="8" edge="1">
                    <mxGeometry width="100" height="100" relative="1" as="geometry">
                        <mxPoint x="360" y="220" as="sourcePoint"/>
                        <mxPoint x="440" y="110" as="targetPoint"/>
                    </mxGeometry>
                </mxCell>
                <mxCell id="faXq0JID8bgZHqzAQeFo-28" value="end_date" style="text;html=1;strokeColor=none;fillColor=none;align=left;verticalAlign=middle;whiteSpace=wrap;rounded=0;" parent="1" vertex="1">
                    <mxGeometry x="245" y="100" width="94" height="20" as="geometry"/>
                </mxCell>
                <mxCell id="2" value="" style="shape=internalStorage;whiteSpace=wrap;html=1;backgroundOutline=1;" parent="1" vertex="1">
                    <mxGeometry x="400" y="107" width="130" height="80" as="geometry"/>
                </mxCell>
                <mxCell id="3" value="Transaction_Books" style="text;html=1;strokeColor=none;fillColor=none;align=center;verticalAlign=middle;whiteSpace=wrap;rounded=0;" parent="1" vertex="1">
                    <mxGeometry x="426" y="107" width="100" height="20" as="geometry"/>
                </mxCell>
                <mxCell id="4" value="id" style="text;html=1;strokeColor=none;fillColor=none;align=left;verticalAlign=middle;whiteSpace=wrap;rounded=0;fontStyle=1" parent="1" vertex="1">
                    <mxGeometry x="426" y="127" width="94" height="20" as="geometry"/>
                </mxCell>
                <mxCell id="5" value="id_book" style="text;html=1;strokeColor=none;fillColor=none;align=left;verticalAlign=middle;whiteSpace=wrap;rounded=0;" parent="1" vertex="1">
                    <mxGeometry x="426" y="167" width="94" height="20" as="geometry"/>
                </mxCell>
                <mxCell id="6" value="&lt;div&gt;id_transaction&lt;br&gt;&lt;/div&gt;" style="text;html=1;strokeColor=none;fillColor=none;align=left;verticalAlign=middle;whiteSpace=wrap;rounded=0;" parent="1" vertex="1">
                    <mxGeometry x="426" y="147" width="94" height="20" as="geometry"/>
                </mxCell>
                <mxCell id="7" value="PK" style="text;html=1;strokeColor=none;fillColor=none;align=left;verticalAlign=middle;whiteSpace=wrap;rounded=0;fontStyle=1" parent="1" vertex="1">
                    <mxGeometry x="400" y="127" width="20" height="20" as="geometry"/>
                </mxCell>
                <mxCell id="8" value="FK" style="text;html=1;strokeColor=none;fillColor=none;align=left;verticalAlign=middle;whiteSpace=wrap;rounded=0;" parent="1" vertex="1">
                    <mxGeometry x="400" y="167" width="20" height="20" as="geometry"/>
                </mxCell>
                <mxCell id="9" value="FK" style="text;html=1;strokeColor=none;fillColor=none;align=left;verticalAlign=middle;whiteSpace=wrap;rounded=0;" parent="1" vertex="1">
                    <mxGeometry x="400" y="147" width="20" height="20" as="geometry"/>
                </mxCell>
                <mxCell id="10" value="" style="endArrow=none;html=1;rounded=0;exitX=0;exitY=1;exitDx=0;exitDy=0;entryX=1;entryY=0.5;entryDx=0;entryDy=0;" parent="1" target="2" edge="1">
                    <mxGeometry width="50" height="50" relative="1" as="geometry">
                        <mxPoint x="400" y="146.51999999999998" as="sourcePoint"/>
                        <mxPoint x="520" y="146.51999999999998" as="targetPoint"/>
                        <Array as="points">
                            <mxPoint x="465" y="147"/>
                        </Array>
                    </mxGeometry>
                </mxCell>
                <mxCell id="12" value="" style="edgeStyle=entityRelationEdgeStyle;fontSize=12;html=1;endArrow=ERoneToMany;startArrow=ERmandOne;rounded=0;entryX=0;entryY=0.5;entryDx=0;entryDy=0;exitX=1;exitY=0.5;exitDx=0;exitDy=0;endFill=0;" parent="1" target="9" edge="1">
                    <mxGeometry width="100" height="100" relative="1" as="geometry">
                        <mxPoint x="339" y="89.71000000000001" as="sourcePoint"/>
                        <mxPoint x="389" y="89.71000000000001" as="targetPoint"/>
                    </mxGeometry>
                </mxCell>
                <mxCell id="13" value="&lt;div&gt;id_borrower&lt;br&gt;&lt;/div&gt;" style="text;html=1;strokeColor=none;fillColor=none;align=left;verticalAlign=middle;whiteSpace=wrap;rounded=0;" vertex="1" parent="1">
                    <mxGeometry x="246" y="137" width="94" height="20" as="geometry"/>
                </mxCell>
            </root>
        </mxGraphModel>
    </diagram>
</mxfile>